{"title":"Road Train 2010 DVDrip English Klam","uid":6451549,"size":1330409867,"categoryP":"video","categoryS":"movies","magnet":"?xt=urn:btih:4a8381deb156af8e0afb3d14c45720e3c5f49a5a&amp;dn=Road+Train+2010+DVDrip+English+Klam&amp;tr=udp%3A%2F%2Ftracker.openbittorrent.com%3A80&amp;tr=udp%3A%2F%2Fopen.demonii.com%3A1337&amp;tr=udp%3A%2F%2Ftracker.coppersurfer.tk%3A6969&amp;tr=udp%3A%2F%2Fexodus.desync.com%3A6969","seeders":0,"leechers":1,"uploader":"Klambake","files":-1,"time":1307445747,"description":"With: Xavier Samuel, Sophie Lowe en Bob Morley\n\nDe wagen van een groep vrienden is total-loss als ze door een gigantische vrachtwagen van de weg gereden worden. Als ze een kijkje nemen in de cabine, zien ze tot hun schrik dat er helemaal geen bestuurder aanwezig is. Maar als ze een kijkje nemen in de trailers, is de nachtmerrie compleet...\n\nA supernatural thriller about a group of teenagers menaced by a driver-less train in the Australian outback.\n\nGeneral:\n\nComplete name                    : Road Train\\Road Train.avi\nFormat                           : AVI\nFormat/Info                      : Audio Video Interleave\nFile size                        : 1.23 GiB\nDuration                         : 1h 26mn\nOverall bit rate                 : 2 035 Kbps\n\nVideo:\n\nFormat                           : MPEG-4 Visual\nFormat profile                   : Simple@L3\nFormat settings, BVOP            : No\nFormat settings, QPel            : No\nFormat settings, GMC             : No warppoints\nFormat settings, Matrix          : Default (H.263)\nCodec ID                         : XVID\nCodec ID/Hint                    : XviD\nDuration                         : 1h 26mn\nBit rate                         : 1 577 Kbps\nWidth                            : 720 pixels\nHeight                           : 304 pixels\nDisplay aspect ratio             : 2.35:1\nFrame rate                       : 25.000 fps\nColor space                      : YUV\nChroma subsampling               : 4:2:0\nBit depth                        : 8 bits\nScan type                        : Progressive\nBits/(Pixel*Frame)               : 0.288\nStream size                      : 977 MiB (77%)\nWriting library                  : XviD 1.1.2 (UTC 2006-11-01)\n\nAudio:\n\nFormat                           : AC-3\nFormat/Info                      : Audio Coding 3\nMode extension                   : CM (complete main)\nCodec ID                         : 2000\nDuration                         : 1h 26mn\nBit rate mode                    : Constant\nBit rate                         : 448 Kbps\nChannel(s)                       : 6 channels\nChannel positions                : Front: L C R, Side: L R, LFE\nSampling rate                    : 48.0 KHz\nBit depth                        : 16 bits\nStream size                      : 278 MiB (22%)\nAlignment                        : Aligned on interleaves\nInterleave, duration             : 32 ms (0.80 video frame)\nInterleave, preload duration     : 864 ms\n\n","torrent":{"xt":"urn:btih:4a8381deb156af8e0afb3d14c45720e3c5f49a5a","amp;dn":"Road+Train+2010+DVDrip+English+Klam","amp;tr":["udp%3A%2F%2Ftracker.openbittorrent.com%3A80","udp%3A%2F%2Fopen.demonii.com%3A1337","udp%3A%2F%2Ftracker.coppersurfer.tk%3A6969","udp%3A%2F%2Fexodus.desync.com%3A6969"],"infoHash":"4a8381deb156af8e0afb3d14c45720e3c5f49a5a","infoHashBuffer":{"type":"Buffer","data":[74,131,129,222,177,86,175,142,10,251,61,20,196,87,32,227,197,244,154,90]},"announce":[],"urlList":[]}}